<?xml version="1.0" standalone="no"?>
<!DOCTYPE svg PUBLIC "-//W3C//DTD SVG 20010904//EN"
 "http://www.w3.org/TR/2001/REC-SVG-20010904/DTD/svg10.dtd">
<svg version="1.0" xmlns="http://www.w3.org/2000/svg"
 width="980.000000pt" height="980.000000pt" viewBox="0 0 980.000000 980.000000"
 preserveAspectRatio="xMidYMid meet">
<metadata>
Created by potrace 1.11, written by Peter Selinger 2001-2013
</metadata>
<g transform="translate(0.000000,980.000000) scale(0.100000,-0.100000)"
fill="#000000" stroke="none">
<path d="M4447 9176 c-133 -48 -219 -180 -203 -310 9 -70 49 -149 96 -188 21
-18 563 -323 1203 -678 l1165 -645 -2846 -5 -2847 -5 -96 -27 c-443 -125 -762
-444 -887 -886 l-27 -97 -3 -2315 c-3 -2518 -5 -2386 53 -2563 140 -431 513
-754 959 -832 79 -13 503 -15 3886 -15 3321 0 3808 2 3883 15 264 46 496 170
685 368 143 150 240 324 300 536 l27 96 0 2355 0 2355 -27 97 c-119 420 -409
728 -813 861 -153 51 -225 57 -635 57 l-377 0 -1614 901 c-888 496 -1635 910
-1662 920 -56 23 -164 25 -220 5z m2292 -3390 c254 -47 482 -137 691 -273 108
-71 163 -115 273 -222 277 -269 452 -590 529 -972 31 -154 33 -498 4 -654
-142 -763 -731 -1354 -1486 -1490 -144 -26 -418 -31 -560 -11 -302 44 -579
154 -820 324 -123 87 -345 309 -432 432 -78 111 -173 288 -221 415 -214 563
-130 1208 221 1705 87 123 309 345 432 432 235 166 528 282 820 324 122 17
433 12 549 -10z m-3258 -302 c64 -30 125 -88 157 -148 22 -43 27 -64 27 -131
0 -67 -5 -88 -27 -131 -32 -60 -93 -118 -157 -148 l-46 -21 -985 0 -985 0 -46
21 c-64 30 -125 88 -157 148 -22 43 -27 64 -27 131 0 67 5 88 27 131 44 83
125 146 211 164 23 4 474 7 1002 7 958 -2 960 -2 1006 -23z m-7 -1225 c67 -25
139 -92 169 -157 32 -69 31 -180 -3 -247 -33 -68 -99 -129 -166 -154 -54 -21
-70 -21 -1024 -21 -954 0 -970 0 -1024 21 -67 25 -133 86 -166 154 -35 71 -35
179 0 250 32 66 99 129 163 154 51 19 76 20 1024 20 958 1 973 1 1027 -20z m7
-1225 c64 -30 125 -88 157 -148 22 -43 27 -64 27 -131 0 -67 -5 -88 -27 -131
-32 -60 -93 -118 -157 -148 l-46 -21 -985 0 -985 0 -46 21 c-64 30 -125 88
-157 148 -22 43 -27 64 -27 131 0 67 5 88 27 131 44 83 125 146 211 164 23 4
474 7 1002 7 958 -2 960 -2 1006 -23z"/>
<path d="M6245 5196 c-329 -54 -610 -224 -805 -487 -103 -138 -186 -329 -221
-509 -17 -84 -17 -356 0 -440 121 -616 656 -1038 1276 -1007 303 15 591 143
805 357 232 232 360 542 360 870 0 585 -404 1081 -982 1206 -100 21 -332 27
-433 10z"/>
</g>
</svg>
